<?xml version="1.0" encoding="UTF-8"?>
<svg id="Livello_2" data-name="Livello 2" xmlns="http://www.w3.org/2000/svg" viewBox="0 0 100 99.63">
  <defs>
    <style>
      .cls-1 {
        fill: #eb9019;
      }

      .cls-2 {
        fill: #de5219;
      }

      .cls-3 {
        fill: #bf2309;
      }
    </style>
  </defs>
  <g id="Livello_1-2" data-name="Livello 1">
    <g>
      <path class="cls-3" d="M27.53,76.92c-4.52-.67-11.5-2.71-15.71-4.62-1.13-.51-2.28-2.23-2.99-3.32-1.18-1.81-2.3-3.89-2.45-6.14-.25-3.7,1.75-6.44,2-9.91.14-1.9-.24-3.68-.75-5.48,2.56,1.21,4.5,3.44,5.41,6.24.53,1.63.64,4.18,1.6,5.45,1.74,2.32,4.58.46,4.86-2.13.6-5.4-4.48-10.66-5.22-16.26-1.1-8.35,6.28-12.41,7.24-19.94.19-1.48.02-2.81,0-4.29,2.99,2.84,3.41,7.69,2.71,11.66s-3.69,9.37-1.14,12.91c1.44,1.99,4.94,4.22,7,2,2.55-2.75-.12-10.52-.32-14.07-.57-9.94,8.76-15.14,5.57-26.37-.26-.91-.71-1.73-.94-2.64,4.96,1.52,8.76,5.67,10.1,10.94,1.97,7.76-2.91,12.97-.65,20.38.94,3.08,3.14,4.67,4.25,7.53.34.86.5,1.8.88,2.64.98-.85,1.72-1.69,2.19-2.97,1.65-4.47-1.08-9.44-.36-14.13.61-3.98,3.17-6.6,6.49-8.28-.96,2.55-1.46,4.96-1.11,7.71.77,6.01,5.04,10.89,4.35,17.18-.54,4.92-4.1,9.19-4.49,14.03-.27,3.36,1.86,5.21,4.25,2.37l5.01-7.2c-.25,3.86,2.52,6.92,2.75,10.64.25,3.94-1.68,7.24-3.76,10.3-5.41,2.22-10.89,4.44-16.63,5.49,2.67-4.68,5.01-10.18,4.63-15.79-.14-2.09-.8-4.18-1.44-6.14l-1.18-2.38c-.17,2.23-.56,4.49-1.56,6.48-.63,1.26-2.65,3.77-3.97,4.14-1.59.44-2.43-1.45-2.67-2.81-.81-4.49,2.28-8.79,2.07-13.42s-2.63-8.88-6.19-11.44c.03,1.73.7,3.47.81,5.22.46,7.19-5.79,11.4-5.38,17.71.09,1.32.63,2.48.75,3.77-1.98.22-4.48-1.82-5.23-3.66-.44-1.07-.53-2.47-.87-3.58-.24-.79-.67-1.49-.92-2.27-.32-.04-.2,0-.25.19-.26.92-.37,2.03-.66,3.01-.51,1.76-1.34,3.42-1.66,5.25-.94,5.42,1.37,11.32,4.07,15.8l-.5.2Z"/>
      <path class="cls-2" d="M74.18,69.09c.07.34-1.22,4.16-1.46,4.75-.82,2.05-1.19,2.7-2.08,3.59-1.63,1.69-3.57,3.03-5.6,4.19-12.39,6.96-27.31,7.04-41.05,5.21l-6.91-1.2c3.33,1.26,6.73,2.35,10.24,3.04,13,2.89,31.03,1.91,42.17-6.68l-2.04,8.05c-12.97,15.65-47.75,7.43-47.75,7.43-2.66-.75-6.02-2.07-8.27-3.21-6.74-3.41-6.56-10.05-8.67-16.75-.76-2.43-2.55-4.92-2.74-7.41-.06-.78.01-1.13.44-1.76.31-.47,1.89-1.92,2.37-2.12.23-.1.16.09.18.19.82,2.89,1.61,5.87,3.54,8.17,17.09,9.23,40.51,10.89,57.94,1.79.89-.46,3.54-1.87,4.15-2.48.46-.47,1.58-3.03,1.92-3.79.47-1.05.86-2.15,1.27-3.22.19-.06.21.07.31.13.41.27,1.95,1.64,2.04,2.08Z"/>
      <path class="cls-1" d="M27.53,76.92l.5-.2c-2.7-4.49-5.01-10.38-4.07-15.8.32-1.83,1.15-3.49,1.66-5.25.28-.98.4-2.09.66-3.01.05-.19-.07-.23.25-.19.25.78.67,1.49.92,2.27.34,1.11.43,2.5.87,3.58.75,1.84,3.25,3.88,5.23,3.66-.12-1.29-.66-2.45-.75-3.77-.41-6.3,5.84-10.52,5.38-17.71-.11-1.75-.78-3.49-.81-5.22,3.56,2.56,5.98,6.84,6.19,11.44s-2.88,8.93-2.07,13.42c.25,1.36,1.08,3.25,2.67,2.81,1.32-.37,3.34-2.88,3.97-4.14,1-1.99,1.39-4.25,1.56-6.48l1.18,2.38c.64,1.96,1.3,4.05,1.44,6.14.38,5.61-1.96,11.11-4.63,15.79-6.54,1.2-13.57,1.25-20.14.26Z"/>
      <path class="cls-2" d="M91.94,34.53c-.68.09-1.34.34-1.88.78l-20.24,16.16c-.18.34-.16,1.06-.12,1.47.06.92,1.39,5.05,1.78,6.04.12.29.42,1.03.76,1l25.98-16.97c5.12-4.5-1.97-9.02-6.28-8.48ZM89.72,43.28c-.91.45-2.42-.12-1.94-1.38.07-.18.99-1.32,1.19-1.53,2.01-2.2,4.52-3.21,6.88-.85l-6.13,3.76Z"/>
    </g>
  </g>
</svg>